<?xml version="1.0" encoding="UTF-8" standalone="no"?>
<!-- Created with Inkscape (http://www.inkscape.org/) -->

<svg
   xmlns:dc="http://purl.org/dc/elements/1.1/"
   xmlns:cc="http://creativecommons.org/ns#"
   xmlns:rdf="http://www.w3.org/1999/02/22-rdf-syntax-ns#"
   xmlns:svg="http://www.w3.org/2000/svg"
   xmlns="http://www.w3.org/2000/svg"
   xmlns:sodipodi="http://sodipodi.sourceforge.net/DTD/sodipodi-0.dtd"
   xmlns:inkscape="http://www.inkscape.org/namespaces/inkscape"
   width="156.3385mm"
   height="104.94876mm"
   viewBox="0 0 156.3385 104.94876"
   version="1.1"
   id="svg8"
   inkscape:version="0.92.1 r15371"
   sodipodi:docname="laptop.svg">
  <defs
     id="defs2" />
  <sodipodi:namedview
     id="base"
     pagecolor="#ffffff"
     bordercolor="#666666"
     borderopacity="1.0"
     inkscape:pageopacity="0.0"
     inkscape:pageshadow="2"
     inkscape:zoom="0.75878906"
     inkscape:cx="286.62839"
     inkscape:cy="173.21219"
     inkscape:document-units="mm"
     inkscape:current-layer="layer1"
     showgrid="false"
     inkscape:snap-nodes="false"
     borderlayer="false"
     fit-margin-top="0"
     fit-margin-left="0"
     fit-margin-right="0"
     fit-margin-bottom="0"
     inkscape:window-width="1366"
     inkscape:window-height="739"
     inkscape:window-x="0"
     inkscape:window-y="0"
     inkscape:window-maximized="1" />
  <metadata
     id="metadata5">
    <rdf:RDF>
      <cc:Work
         rdf:about="">
        <dc:format>image/svg+xml</dc:format>
        <dc:type
           rdf:resource="http://purl.org/dc/dcmitype/StillImage" />
        <dc:title></dc:title>
      </cc:Work>
    </rdf:RDF>
  </metadata>
  <g
     inkscape:label="Capa 1"
     inkscape:groupmode="layer"
     id="layer1"
     transform="translate(-30.030936,-45.5346)">
    <rect
       style="fill:#000100;fill-opacity:0.93087559;fill-rule:evenodd;stroke:#000000;stroke-width:0.565;stroke-miterlimit:4;stroke-dasharray:none;stroke-opacity:1"
       id="rect10"
       width="144.35831"
       height="76.363449"
       x="36.150925"
       y="73.83741"
       ry="4.7544813" />
    <rect
       ry="2.93609"
       y="79.025665"
       x="40.772644"
       height="47.1576"
       width="135.11487"
       id="rect823"
       style="fill:#0000ff;fill-opacity:0;fill-rule:evenodd;stroke:#d7d7d7;stroke-width:0.301;stroke-miterlimit:4;stroke-dasharray:none;stroke-opacity:1" />
    <rect
       style="fill:#000029;fill-opacity:0;fill-rule:evenodd;stroke:#e7e7e7;stroke-width:0.36899999;stroke-miterlimit:4;stroke-dasharray:none;stroke-opacity:1"
       id="rect825"
       width="38.605911"
       height="19.394474"
       x="89.027122"
       y="128.12508"
       ry="1.2075237" />
    <path
       style="fill:#000100;fill-opacity:0.93087559;fill-rule:evenodd;stroke:#000000;stroke-width:0.37017354;stroke-miterlimit:4;stroke-dasharray:none;stroke-opacity:1"
       d="M 45.882526,45.719687 C 41.107789,45.719687 29.130994,45.908573 30.2924,49.342867 L 37.638281,72.612239 C 38.057358,73.851455 41.107789,73.885179 45.882526,73.885179 H 106.58761 C 107.18445,73.885179 107.76724,73.859707 108.3293,73.811114 108.32982,73.811158 108.33034,73.811067 108.33085,73.811114 108.89292,73.859707 109.4752,73.885179 110.07204,73.885179 H 170.77763 C 175.55237,73.885179 178.60228,73.851455 179.02136,72.612239 L 186.10624,49.342867 C 187.26763,45.908573 175.55237,45.719687 170.77763,45.719687 H 110.07204 C 109.4752,45.719687 108.89292,45.745531 108.33085,45.794124 108.33034,45.794081 108.32982,45.794169 108.3293,45.794124 107.76724,45.745531 107.18445,45.719687 106.58761,45.719687 Z M 41.781858,47.893744 C 43.991367,47.893744 46.120303,47.976039 47.566323,47.976039 H 106.39632 C 106.97473,47.976039 107.53954,47.997697 108.08425,48.038506 108.08474,48.038542 108.08529,48.03847 108.0858,48.038506 108.63052,47.997697 109.19482,47.976039 109.77322,47.976039 H 168.60374 C 173.23102,47.976039 184.47284,47.420496 183.34732,50.304584 L 176.59311,70.560127 C 176.18698,71.600809 173.23102,71.628827 168.60374,71.628827 H 109.77322 C 109.19482,71.628827 108.63052,71.607539 108.0858,71.566732 108.08529,71.566694 108.08474,71.566769 108.08425,71.566732 107.53954,71.607539 106.97473,71.628827 106.39632,71.628827 H 47.566323 C 42.939055,71.628827 39.982565,71.600809 39.576431,70.560127 L 33.053898,50.126155 C 32.280094,48.143345 36.9722,47.893744 41.781858,47.893744 Z"
       id="rect828"
       inkscape:connector-curvature="0"
       sodipodi:nodetypes="sccssccssccssccsssssccssccssccssccs" />
  </g>
</svg>
